<svg xmlns="http://www.w3.org/2000/svg" viewBox="0 0 512 512">
  <defs>
    <radialGradient id="glow" cx="34%" cy="18%" r="78%">
      <stop stop-color="#4338ca"/>
      <stop offset="0.45" stop-color="#190f3d"/>
      <stop offset="1" stop-color="#06151f"/>
    </radialGradient>
    <linearGradient id="rim" x1="74" y1="52" x2="438" y2="460" gradientUnits="userSpaceOnUse">
      <stop stop-color="#c4b5fd"/>
      <stop offset="0.42" stop-color="#22d3ee"/>
      <stop offset="0.72" stop-color="#34d399"/>
      <stop offset="1" stop-color="#f59e0b"/>
    </linearGradient>
    <linearGradient id="panel" x1="120" y1="98" x2="410" y2="412" gradientUnits="userSpaceOnUse">
      <stop stop-color="#2f1d72"/>
      <stop offset="1" stop-color="#082233"/>
    </linearGradient>
    <filter id="softShadow" x="-20%" y="-20%" width="140%" height="140%">
      <feDropShadow dx="0" dy="18" stdDeviation="20" flood-color="#020617" flood-opacity="0.55"/>
    </filter>
  </defs>
  <rect width="512" height="512" rx="112" fill="url(#glow)"/>
  <circle cx="118" cy="92" r="92" fill="#7c3aed" opacity="0.28"/>
  <circle cx="412" cy="410" r="126" fill="#0891b2" opacity="0.18"/>
  <path d="M111 92h188c62 0 113 51 113 113v102c0 62-51 113-113 113H111V92Z" fill="url(#panel)" filter="url(#softShadow)"/>
  <path d="M112 92h188c62 0 112 50 112 112v104c0 62-50 112-112 112H112V92Z" fill="none" stroke="url(#rim)" stroke-width="18"/>
  <path d="M149 153h158l-98 123h102v44H145l98-123h-94v-44Z" fill="#f8fafc"/>
  <path d="M317 153h84v44h-84v-44Zm21 60h42v147h-42V213Z" fill="#f8fafc"/>
  <path d="M137 368h88M181 324v88" stroke="#34d399" stroke-width="26" stroke-linecap="round"/>
  <circle cx="340" cy="372" r="31" fill="#22d3ee"/>
  <circle cx="414" cy="329" r="31" fill="#f59e0b"/>
  <circle cx="414" cy="411" r="18" fill="#a78bfa"/>
  <path d="M126 112c78 26 164 26 258 0" fill="none" stroke="#fff" stroke-width="10" stroke-linecap="round" opacity="0.14"/>
</svg>
